# xmcd
#
# Track frame offsets: 
#        150
#        23143
#        37440
#        51832
#        65817
#        80648
#        94823
#        107897
#        124308
#        138910
#        157538
#        171083
#        190506
#
# Disc length: 2782 seconds
#
# Revision: 0
# Processed by: cddbd v1.5.2PL0 Copyright (c) Steve Scherf et al.
# Submitted via: ExactAudioCopy v0.90b4
#
DISCID=b10adc0d
DTITLE=Weems-Gerrard Band - Foolish Lover's Waltz
DYEAR=2005
DGENRE=Country
TTITLE0=Foolish Lover's Waltz
TTITLE1=Before I'm Over You
TTITLE2=Get Up And Do Right
TTITLE3=Take The Lonesome Out Of Me
TTITLE4=I Didn't Hit The Bottle, It Hit Me
TTITLE5=Play Me A Song I Can Cry To
TTITLE6=I'd Jump The Mississippi
TTITLE7=Making Plans
TTITLE8=My Bucket's Got A Hole In It
TTITLE9=It's A Long Way Back To Heaven
TTITLE10=Sun Keep Shinin' On Me
TTITLE11=The Way It Seems To Me
TTITLE12=Make The World Go Away
EXTD=
EXTT0=
EXTT1=
EXTT2=
EXTT3=
EXTT4=
EXTT5=
EXTT6=
EXTT7=
EXTT8=
EXTT9=
EXTT10=
EXTT11=
EXTT12=
PLAYORDER=
